<svg width="16" height="17" viewBox="0 0 16 17" fill="none" xmlns="http://www.w3.org/2000/svg">
<g id="&#240;&#159;&#166;&#134; icon &#34;share 2&#34;">
<path id="Vector" d="M12.6667 5.51812C13.9554 5.51812 15.0001 4.47345 15.0001 3.18478C15.0001 1.89611 13.9554 0.85144 12.6667 0.85144C11.378 0.85144 10.3334 1.89611 10.3334 3.18478C10.3334 4.47345 11.378 5.51812 12.6667 5.51812Z" stroke="#1F1F1F" stroke-linecap="round" stroke-linejoin="round"/>
<path id="Vector_2" d="M3.33334 10.9626C4.62201 10.9626 5.66668 9.9179 5.66668 8.62924C5.66668 7.34057 4.62201 6.2959 3.33334 6.2959C2.04467 6.2959 1 7.34057 1 8.62924C1 9.9179 2.04467 10.9626 3.33334 10.9626Z" stroke="#1F1F1F" stroke-linecap="round" stroke-linejoin="round"/>
<path id="Vector_3" d="M12.6667 16.407C13.9554 16.407 15.0001 15.3624 15.0001 14.0737C15.0001 12.785 13.9554 11.7404 12.6667 11.7404C11.378 11.7404 10.3334 12.785 10.3334 14.0737C10.3334 15.3624 11.378 16.407 12.6667 16.407Z" stroke="#1F1F1F" stroke-linecap="round" stroke-linejoin="round"/>
<path id="Vector_4" d="M5.34778 9.80371L10.66 12.8993" stroke="#1F1F1F" stroke-linecap="round" stroke-linejoin="round"/>
<path id="Vector_5" d="M10.6522 4.35925L5.34778 7.45481" stroke="#1F1F1F" stroke-linecap="round" stroke-linejoin="round"/>
</g>
</svg>
