<svg width="82" height="82" viewBox="0 0 82 82" fill="none" xmlns="http://www.w3.org/2000/svg">
<g id="Group 20">
<rect id="Rectangle 144" width="82" height="82" rx="41" fill="#F7F7F7"/>
<g id="&#240;&#159;&#166;&#134; icon &#34;gift&#34;">
<path id="Vector" d="M56.1515 40.5287V60.0573H24.9058V40.5287" stroke="#FF97B0" stroke-width="3" stroke-linecap="round" stroke-linejoin="round"/>
<path id="Vector_2" d="M60.0572 30.7643H21V40.5286H60.0572V30.7643Z" stroke="#FF97B0" stroke-width="3" stroke-linecap="round" stroke-linejoin="round"/>
<path id="Vector_3" d="M40.5286 60.0573V30.7643" stroke="#FF97B0" stroke-width="3" stroke-linecap="round" stroke-linejoin="round"/>
<path id="Vector_4" d="M40.5287 30.7643H31.7408C30.446 30.7643 29.2042 30.2499 28.2886 29.3344C27.373 28.4188 26.8586 27.177 26.8586 25.8822C26.8586 24.5873 27.373 23.3455 28.2886 22.4299C29.2042 21.5144 30.446 21 31.7408 21C38.5758 21 40.5287 30.7643 40.5287 30.7643Z" stroke="#FF97B0" stroke-width="3" stroke-linecap="round" stroke-linejoin="round"/>
<path id="Vector_5" d="M40.5286 30.7643H49.3164C50.6113 30.7643 51.8531 30.2499 52.7686 29.3344C53.6842 28.4188 54.1986 27.177 54.1986 25.8822C54.1986 24.5873 53.6842 23.3455 52.7686 22.4299C51.8531 21.5144 50.6113 21 49.3164 21C42.4814 21 40.5286 30.7643 40.5286 30.7643Z" stroke="#FF97B0" stroke-width="3" stroke-linecap="round" stroke-linejoin="round"/>
</g>
</g>
</svg>
