<svg width="16" height="17" viewBox="0 0 16 17" fill="none" xmlns="http://www.w3.org/2000/svg">
<g id="&#240;&#159;&#166;&#134; icon &#34;settings&#34;">
<path id="Vector" d="M8.0259 10.2354C9.11889 10.2354 10.0049 9.34938 10.0049 8.2564C10.0049 7.16341 9.11889 6.27737 8.0259 6.27737C6.93291 6.27737 6.04688 7.16341 6.04688 8.2564C6.04688 9.34938 6.93291 10.2354 8.0259 10.2354Z" stroke="#9E9E9E" stroke-linecap="round" stroke-linejoin="round"/>
<path id="Vector_2" d="M12.9076 10.2355C12.8197 10.4344 12.7935 10.6551 12.8323 10.8691C12.8711 11.0831 12.9732 11.2806 13.1252 11.4361L13.1648 11.4756C13.2875 11.5982 13.3848 11.7437 13.4512 11.9038C13.5176 12.064 13.5518 12.2357 13.5518 12.4091C13.5518 12.5825 13.5176 12.7541 13.4512 12.9143C13.3848 13.0745 13.2875 13.22 13.1648 13.3425C13.0423 13.4652 12.8968 13.5625 12.7366 13.6289C12.5765 13.6953 12.4048 13.7295 12.2314 13.7295C12.058 13.7295 11.8863 13.6953 11.7262 13.6289C11.566 13.5625 11.4205 13.4652 11.2979 13.3425L11.2584 13.3029C11.1029 13.1509 10.9054 13.0488 10.6914 13.01C10.4774 12.9712 10.2567 12.9974 10.0578 13.0852C9.86264 13.1689 9.69624 13.3077 9.57903 13.4847C9.46183 13.6617 9.39893 13.8691 9.39808 14.0814V14.1935C9.39808 14.5434 9.25908 14.879 9.01165 15.1264C8.76423 15.3738 8.42864 15.5129 8.07873 15.5129C7.72882 15.5129 7.39324 15.3738 7.14581 15.1264C6.89838 14.879 6.75938 14.5434 6.75938 14.1935V14.1341C6.75427 13.9158 6.6836 13.704 6.55654 13.5264C6.42948 13.3487 6.25192 13.2134 6.04693 13.138C5.84796 13.0502 5.62725 13.024 5.41326 13.0628C5.19926 13.1016 5.00179 13.2036 4.84632 13.3557L4.80674 13.3953C4.68421 13.518 4.5387 13.6153 4.37853 13.6817C4.21837 13.7481 4.04669 13.7822 3.8733 13.7822C3.69992 13.7822 3.52824 13.7481 3.36807 13.6817C3.2079 13.6153 3.06239 13.518 2.93986 13.3953C2.81719 13.2728 2.71988 13.1273 2.65348 12.9671C2.58709 12.8069 2.55291 12.6352 2.55291 12.4619C2.55291 12.2885 2.58709 12.1168 2.65348 11.9566C2.71988 11.7965 2.81719 11.6509 2.93986 11.5284L2.97944 11.4888C3.13152 11.3334 3.23354 11.1359 3.27234 10.9219C3.31114 10.7079 3.28495 10.4872 3.19714 10.2882C3.11351 10.0931 2.97466 9.92671 2.79768 9.8095C2.62069 9.6923 2.4133 9.6294 2.20103 9.62855H2.08888C1.73897 9.62855 1.40339 9.48955 1.15596 9.24212C0.908534 8.99469 0.769531 8.65911 0.769531 8.3092C0.769531 7.95929 0.908534 7.6237 1.15596 7.37628C1.40339 7.12885 1.73897 6.98985 2.08888 6.98985H2.14825C2.3666 6.98474 2.57836 6.91407 2.75601 6.78701C2.93366 6.65995 3.06897 6.48238 3.14436 6.2774C3.23217 6.07843 3.25837 5.85772 3.21957 5.64372C3.18077 5.42973 3.07875 5.23226 2.92667 5.07679L2.88709 5.03721C2.76442 4.91468 2.66711 4.76917 2.60071 4.609C2.53432 4.44884 2.50014 4.27715 2.50014 4.10377C2.50014 3.93039 2.53432 3.75871 2.60071 3.59854C2.66711 3.43837 2.76442 3.29286 2.88709 3.17033C3.00962 3.04766 3.15513 2.95035 3.3153 2.88395C3.47546 2.81756 3.64715 2.78338 3.82053 2.78338C3.99391 2.78338 4.16559 2.81756 4.32576 2.88395C4.48593 2.95035 4.63144 3.04766 4.75397 3.17033L4.79355 3.20991C4.94902 3.36199 5.14649 3.46401 5.36048 3.50281C5.57448 3.54161 5.79519 3.51542 5.99416 3.4276H6.04693C6.24204 3.34398 6.40844 3.20513 6.52565 3.02815C6.64286 2.85116 6.70576 2.64377 6.70661 2.43149V2.31935C6.70661 1.96944 6.84561 1.63385 7.09304 1.38643C7.34046 1.139 7.67604 1 8.02596 1C8.37587 1 8.71145 1.139 8.95888 1.38643C9.2063 1.63385 9.34531 1.96944 9.34531 2.31935V2.37872C9.34615 2.591 9.40905 2.79839 9.52626 2.97537C9.64347 3.15236 9.80987 3.29121 10.005 3.37483C10.204 3.46264 10.4247 3.48884 10.6387 3.45004C10.8527 3.41123 11.0501 3.30922 11.2056 3.15714L11.2452 3.11756C11.3677 2.99489 11.5132 2.89757 11.6734 2.83118C11.8335 2.76478 12.0052 2.73061 12.1786 2.73061C12.352 2.73061 12.5237 2.76478 12.6838 2.83118C12.844 2.89757 12.9895 2.99489 13.1121 3.11756C13.2347 3.24009 13.332 3.3856 13.3984 3.54576C13.4648 3.70593 13.499 3.87761 13.499 4.051C13.499 4.22438 13.4648 4.39606 13.3984 4.55623C13.332 4.7164 13.2347 4.86191 13.1121 4.98444L13.0725 5.02402C12.9204 5.17949 12.8184 5.37695 12.7796 5.59095C12.7408 5.80495 12.767 6.02566 12.8548 6.22463V6.2774C12.9384 6.47251 13.0773 6.63891 13.2542 6.75612C13.4312 6.87333 13.6386 6.93623 13.8509 6.93708H13.963C14.3129 6.93708 14.6485 7.07608 14.896 7.3235C15.1434 7.57093 15.2824 7.90651 15.2824 8.25643C15.2824 8.60634 15.1434 8.94192 14.896 9.18935C14.6485 9.43677 14.3129 9.57578 13.963 9.57578H13.9037C13.6914 9.57662 13.484 9.63952 13.307 9.75673C13.13 9.87394 12.9912 10.0403 12.9076 10.2355Z" stroke="#9E9E9E" stroke-linecap="round" stroke-linejoin="round"/>
</g>
</svg>
