<svg width="81" height="14" viewBox="0 0 81 14" fill="none" xmlns="http://www.w3.org/2000/svg">
<g id="&#236;&#158;&#145;&#236;&#134;&#140;&#237;&#142;&#128;&#235;&#148;&#169;_&#237;&#154;&#140;&#236;&#131;&#137;&#235;&#161;&#156;&#234;&#179;&#160;" clip-path="url(#clip0_14_544)">
<g id="Group">
<path id="Vector" d="M24.2377 10.0442H34.5208V14H35.5513V9.06616H24.2377V10.0442Z" fill="#9E9E9E"/>
<path id="Vector_2" d="M27.7715 4.65941C28.2975 6.48515 30.318 7.47137 32.0957 7.78924L32.1739 7.80283V6.7351L32.12 6.72423C29.2956 6.21346 28.2894 4.31165 28.2894 2.70327V1.93983H32.0256V0.961761H23.5228V1.93983H27.259V2.70327C27.259 4.31437 26.2528 6.21618 23.4284 6.72423L23.3745 6.7351V7.80283L23.4527 7.78924C25.2304 7.47137 27.2509 6.48515 27.7769 4.65941H27.7715Z" fill="#9E9E9E"/>
<path id="Vector_3" d="M35.5513 0.527069H34.5208V8.44401H35.5513V4.67572H37.5826V3.70037H35.5513V0.527069Z" fill="#9E9E9E"/>
<path id="Vector_4" d="M45.3839 8.41141H44.3535V12.4269H38.0465V13.4186H51.6909V12.4269H45.3839V8.41141Z" fill="#9E9E9E"/>
<path id="Vector_5" d="M44.8687 4.20026C45.6213 6.15912 48.3 7.76479 51.0839 7.89248H51.1541V6.91984H51.092C48.211 6.73781 45.384 4.57519 45.384 2.54569V0.760712H44.3535V2.54297C44.3535 4.61051 41.5804 6.7351 38.6454 6.91169H38.5834V7.89248H38.6535C41.4023 7.76479 44.135 6.12652 44.8687 4.19754V4.20026Z" fill="#9E9E9E"/>
<path id="Vector_6" d="M62.4515 7.26218H59.9805L60.6225 2.17078H59.5921L58.9635 7.26218H56.6139L56.0016 2.17078H54.9576L55.5835 7.26218H53.2609V8.24025H62.4515V7.26218Z" fill="#9E9E9E"/>
<path id="Vector_7" d="M62.3031 0.847656H53.4119V1.83931H62.3031V0.847656Z" fill="#9E9E9E"/>
<path id="Vector_8" d="M55.427 9.62042H54.3965V13.856H66.2928V12.8779H55.427V9.62042Z" fill="#9E9E9E"/>
<path id="Vector_9" d="M61.6476 5.08325H64.9791V10.5088H66.0096V0.527069H64.9791V4.1079H61.6476V5.08325Z" fill="#9E9E9E"/>
<path id="Vector_10" d="M80.7168 0.527069H79.6863V8.41412H80.7168V0.527069Z" fill="#9E9E9E"/>
<path id="Vector_11" d="M78.0192 8.79178H72.1762C70.4498 8.79178 69.1954 9.87309 69.1954 11.3619C69.1954 12.8508 70.4498 13.9321 72.1762 13.9321H78.0192C79.7456 13.9321 81 12.8508 81 11.3619C81 9.87309 79.7456 8.79178 78.0192 8.79178ZM79.9695 11.3619C79.9695 12.2829 79.1306 12.954 77.9733 12.954H72.2194C71.0622 12.954 70.2232 12.2857 70.2232 11.3619C70.2232 10.4382 71.0622 9.76985 72.2194 9.76985H77.9733C79.1306 9.76985 79.9695 10.4382 79.9695 11.3619Z" fill="#9E9E9E"/>
<path id="Vector_12" d="M76.7999 6.88181V5.90646L69.8644 6.41451V1.83931H75.6345V0.847656H68.8339V7.47409L76.7378 6.88724L76.7999 6.88181Z" fill="#9E9E9E"/>
</g>
<g id="Group_2">
<path id="Vector_13" d="M13.2397 13.443C15.6964 13.443 17.688 11.4372 17.688 8.96293C17.688 6.48863 15.6964 4.48282 13.2397 4.48282C10.783 4.48282 8.79138 6.48863 8.79138 8.96293C8.79138 11.4372 10.783 13.443 13.2397 13.443Z" fill="#D1D1D1"/>
<path id="Vector_14" d="M8.79138 8.96022C11.2481 8.96022 13.2397 6.9544 13.2397 4.48011C13.2397 2.00581 11.2481 0 8.79138 0C6.33465 0 4.34308 2.00581 4.34308 4.48011C4.34308 6.9544 6.33465 8.96022 8.79138 8.96022Z" fill="#B9B9B9"/>
<path id="Vector_15" d="M13.2397 13.443C13.2397 13.443 8.91283 13.3072 8.89934 8.96293C8.89934 7.81641 8.46503 6.66989 7.59641 5.79506C5.85918 4.0454 3.04291 4.0454 1.30567 5.79506C-0.431563 7.54472 -0.431563 10.3811 1.30567 12.1308C2.17429 13.0056 3.31267 13.443 4.45104 13.443H13.2424H13.2397Z" fill="#A5A5A5"/>
</g>
</g>
<defs>
<clipPath id="clip0_14_544">
<rect width="81" height="14" fill="white"/>
</clipPath>
</defs>
</svg>
