<svg width="32" height="24" viewBox="0 0 32 24" fill="none" xmlns="http://www.w3.org/2000/svg">
<g id="_&#235;&#160;&#136;&#236;&#157;&#180;&#236;&#150;&#180;_1" clip-path="url(#clip0_12_2)">
<path id="Vector" d="M23.5878 23.1531C27.9647 23.1531 31.5129 19.6984 31.5129 15.4369C31.5129 11.1754 27.9647 7.7208 23.5878 7.7208C19.2109 7.7208 15.6627 11.1754 15.6627 15.4369C15.6627 19.6984 19.2109 23.1531 23.5878 23.1531Z" fill="#FFD731"/>
<path id="Vector_2" d="M15.6627 15.4323C20.0396 15.4323 23.5878 11.9776 23.5878 7.71613C23.5878 3.45463 20.0396 0 15.6627 0C11.2858 0 7.73767 3.45463 7.73767 7.71613C7.73767 11.9776 11.2858 15.4323 15.6627 15.4323Z" fill="#FF97B0"/>
<path id="Vector_3" d="M23.5878 23.1531C23.5878 23.1531 15.879 22.9191 15.855 15.4369C15.855 13.4623 15.0812 11.4876 13.5337 9.98089C10.4386 6.96744 5.42117 6.96744 2.32611 9.98089C-0.768943 12.9943 -0.768943 17.8795 2.32611 20.893C3.87364 22.3997 5.90177 23.1531 7.9299 23.1531H23.5926H23.5878Z" fill="#2ED4EF"/>
</g>
<defs>
<clipPath id="clip0_12_2">
<rect width="32" height="24" fill="white"/>
</clipPath>
</defs>
</svg>
