<svg width="66" height="16" viewBox="0 0 66 16" fill="none" xmlns="http://www.w3.org/2000/svg">
<g id="Group">
<path id="Vector" d="M13.9384 0H12.7588V8.99408H13.9384V4.7131H16.2635V3.60504H13.9384V0Z" fill="#282828"/>
<path id="Vector_2" d="M0.988098 10.8121H12.7588V15.306H13.9384V9.70093H0.988098V10.8121Z" fill="#282828"/>
<path id="Vector_3" d="M5.03312 4.69463C5.63525 6.76876 7.94802 7.88917 9.98288 8.25029L10.0724 8.26572V7.05272L10.0107 7.04038C6.77774 6.46011 5.62598 4.29956 5.62598 2.47235V1.60504H9.9026V0.493896H0.169828V1.60504H4.44644V2.47235C4.44644 4.30265 3.29469 6.4632 0.0617552 7.04038L0 7.05272V8.26572L0.0895467 8.25029C2.12441 7.88917 4.43718 6.76876 5.0393 4.69463H5.03312Z" fill="#282828"/>
<path id="Vector_4" d="M25.1934 8.95703H24.0139V13.5189H16.7946V14.6455H32.4127V13.5189H25.1934V8.95703Z" fill="#282828"/>
<path id="Vector_5" d="M24.6036 4.1729C25.4651 6.39827 28.5313 8.2224 31.718 8.36746H31.7982V7.26249H31.7272C28.4294 7.0557 25.1934 4.59884 25.1934 2.29322V0.265381H24.0139V2.29013C24.0139 4.63896 20.8396 7.05261 17.4801 7.25323H17.4091V8.36746H17.4893C20.6358 8.2224 23.7638 6.36123 24.6036 4.16981V4.1729Z" fill="#282828"/>
<path id="Vector_6" d="M44.5601 0.364258H34.3827V1.49083H44.5601V0.364258Z" fill="#282828"/>
<path id="Vector_7" d="M43.8098 5.17607H47.6233V11.3398H48.8028V0H47.6233V4.06802H43.8098V5.17607Z" fill="#282828"/>
<path id="Vector_8" d="M36.6893 10.3306H35.5098V15.1424H49.127V14.0313H36.6893V10.3306Z" fill="#282828"/>
<path id="Vector_9" d="M44.73 7.65142H41.9015L42.6364 1.86731H41.4569L40.7374 7.65142H38.048L37.347 1.86731H36.152L36.8684 7.65142H34.2098V8.76257H44.73V7.65142Z" fill="#282828"/>
<path id="Vector_10" d="M65.6375 0H64.458V8.96013H65.6375V0Z" fill="#282828"/>
<path id="Vector_11" d="M62.5497 9.38916H55.8615C53.8853 9.38916 52.4495 10.6176 52.4495 12.309C52.4495 14.0004 53.8853 15.2288 55.8615 15.2288H62.5497C64.5259 15.2288 65.9617 14.0004 65.9617 12.309C65.9617 10.6176 64.5259 9.38916 62.5497 9.38916ZM64.7822 12.309C64.7822 13.3553 63.8219 14.1177 62.4972 14.1177H55.9109C54.5863 14.1177 53.6259 13.3584 53.6259 12.309C53.6259 11.2596 54.5863 10.5003 55.9109 10.5003H62.4972C63.8219 10.5003 64.7822 11.2596 64.7822 12.309Z" fill="#282828"/>
<path id="Vector_12" d="M61.154 7.21939V6.11133L53.2153 6.68851V1.49083H59.8201V0.364258H52.0357V7.89225L61.083 7.22556L61.154 7.21939Z" fill="#282828"/>
</g>
</svg>
