<svg width="215" height="51" viewBox="0 0 215 51" fill="none" xmlns="http://www.w3.org/2000/svg">
<g id="Group">
<path id="Vector" d="M45.98 0.680008H42.16V29.82H45.98V15.95H53.52V12.35H45.98V0.680008Z" fill="white"/>
<path id="Vector_2" d="M4.04004 35.71H42.16V50.27H45.98V32.11H4.04004V35.71Z" fill="white"/>
<path id="Vector_3" d="M17.14 15.89C19.09 22.61 26.58 26.24 33.17 27.41L33.46 27.46V23.53L33.26 23.49C22.79 21.61 19.06 14.61 19.06 8.69001V5.88001H32.91V2.28001H1.39003V5.88001H15.24V8.69001C15.24 14.62 11.51 21.62 1.04002 23.49L0.840027 23.53V27.46L1.13004 27.41C7.72004 26.24 15.21 22.61 17.16 15.89H17.14Z" fill="white"/>
<path id="Vector_4" d="M82.43 29.7H78.62V44.48H55.2401V48.13H105.82V44.48H82.43V29.7Z" fill="white"/>
<path id="Vector_5" d="M80.53 14.2C83.32 21.41 93.2501 27.32 103.57 27.79H103.83V24.21H103.6C92.9201 23.54 82.44 15.58 82.44 8.11V1.55H78.62V8.11C78.62 15.72 68.3401 23.54 57.4601 24.19H57.23V27.8H57.4901C67.6801 27.33 77.81 21.3 80.53 14.2Z" fill="white"/>
<path id="Vector_6" d="M145.15 1.86001H112.19V5.51001H145.15V1.86001Z" fill="white"/>
<path id="Vector_7" d="M142.72 17.45H155.08V37.42H158.89V0.680008H155.08V13.85H142.72V17.45Z" fill="white"/>
<path id="Vector_8" d="M119.66 34.15H115.85V49.74H159.95V46.14H119.66V34.15Z" fill="white"/>
<path id="Vector_9" d="M145.71 25.47H136.54L138.93 6.73001H135.1L132.78 25.47H124.07L121.8 6.73001H117.92L120.25 25.47H111.64V29.07H145.71V25.47Z" fill="white"/>
<path id="Vector_10" d="M213.41 0.680008H209.59V29.71H213.41V0.680008Z" fill="white"/>
<path id="Vector_11" d="M203.41 31.09H181.75C175.35 31.09 170.7 35.07 170.7 40.55C170.7 46.03 175.35 50.01 181.75 50.01H203.41C209.81 50.01 214.46 46.03 214.46 40.55C214.46 35.07 209.81 31.09 203.41 31.09ZM210.64 40.55C210.64 43.94 207.53 46.41 203.24 46.41H181.91C177.62 46.41 174.51 43.95 174.51 40.55C174.51 37.15 177.62 34.69 181.91 34.69H203.24C207.53 34.69 210.64 37.15 210.64 40.55Z" fill="white"/>
<path id="Vector_12" d="M198.89 24.07V20.47L173.18 22.35V5.51001H194.57V1.86001H169.37V26.25L198.67 24.09L198.89 24.07Z" fill="white"/>
</g>
</svg>
