<svg width="21" height="22" viewBox="0 0 21 22" fill="none" xmlns="http://www.w3.org/2000/svg">
<g id="Group 7">
<path id="Vector" d="M10.5424 21.0167C11.8663 21.0167 12.9395 19.9708 12.9395 18.6806C12.9395 17.3903 11.8663 16.3444 10.5424 16.3444C9.21849 16.3444 8.14526 17.3903 8.14526 18.6806C8.14526 19.9708 9.21849 21.0167 10.5424 21.0167Z" stroke="#1F1F1F" stroke-width="1.5" stroke-miterlimit="10"/>
<path id="Vector_2" d="M17.5416 10.3318V8.02555C17.5416 4.63361 15.0907 1.60858 11.6564 1.08444C7.32314 0.425521 3.55077 3.71263 3.55077 7.81589V10.3318C3.55077 11.1704 3.12052 11.9491 2.39831 12.4133C1.56086 12.9525 1 13.8809 1 14.9292C1 16.4417 2.16014 17.6922 3.65833 17.9018C3.80431 17.9243 3.94261 17.9468 4.09627 17.9468H16.9961C17.1421 17.9468 17.288 17.9243 17.434 17.9018C18.9322 17.6922 20.0924 16.4417 20.0924 14.9292C20.0924 13.8809 19.5315 12.9525 18.694 12.4133C17.9718 11.9491 17.5416 11.1704 17.5416 10.3318Z" fill="white" stroke="#1F1F1F" stroke-width="1.5" stroke-miterlimit="10"/>
</g>
</svg>
