<svg width="21" height="18" viewBox="0 0 21 18" fill="none" xmlns="http://www.w3.org/2000/svg">
<g id="&#240;&#159;&#166;&#134; icon &#34;users&#34;">
<path id="Vector" d="M14.8182 17.0391V15.3196C14.8182 14.4075 14.4542 13.5328 13.8064 12.8879C13.1585 12.2429 12.2799 11.8806 11.3636 11.8806H4.45455C3.53835 11.8806 2.65967 12.2429 2.01181 12.8879C1.36396 13.5328 1 14.4075 1 15.3196V17.0391" stroke="#1F1F1F" stroke-width="1.5" stroke-linecap="round" stroke-linejoin="round"/>
<path id="Vector_2" d="M7.90914 8.4417C9.81703 8.4417 11.3637 6.90201 11.3637 5.00271C11.3637 3.10341 9.81703 1.56372 7.90914 1.56372C6.00124 1.56372 4.45459 3.10341 4.45459 5.00271C4.45459 6.90201 6.00124 8.4417 7.90914 8.4417Z" stroke="#1F1F1F" stroke-width="1.5" stroke-linecap="round" stroke-linejoin="round"/>
<path id="Vector_3" d="M19.9996 17.0392V15.3197C19.999 14.5577 19.7443 13.8175 19.2753 13.2153C18.8064 12.613 18.1498 12.1829 17.4087 11.9924" stroke="#1F1F1F" stroke-width="1.5" stroke-linecap="round" stroke-linejoin="round"/>
<path id="Vector_4" d="M13.9546 1.67542C14.6977 1.86482 15.3563 2.29504 15.8266 2.89824C16.297 3.50145 16.5523 4.24333 16.5523 5.00694C16.5523 5.77054 16.297 6.51242 15.8266 7.11563C15.3563 7.71884 14.6977 8.14906 13.9546 8.33846" stroke="#1F1F1F" stroke-width="1.5" stroke-linecap="round" stroke-linejoin="round"/>
</g>
</svg>
