<svg width="17" height="17" viewBox="0 0 17 17" fill="none" xmlns="http://www.w3.org/2000/svg">
<g id="&#240;&#159;&#166;&#134; icon &#34;settings&#34;">
<path id="Vector" d="M8.25637 10.2354C9.34935 10.2354 10.2354 9.34938 10.2354 8.2564C10.2354 7.16341 9.34935 6.27737 8.25637 6.27737C7.16338 6.27737 6.27734 7.16341 6.27734 8.2564C6.27734 9.34938 7.16338 10.2354 8.25637 10.2354Z" stroke="#9E9E9E" stroke-linecap="round" stroke-linejoin="round"/>
<path id="Vector_2" d="M13.138 10.2355C13.0502 10.4344 13.024 10.6551 13.0628 10.8691C13.1016 11.0831 13.2036 11.2806 13.3557 11.4361L13.3953 11.4756C13.518 11.5982 13.6153 11.7437 13.6817 11.9038C13.7481 12.064 13.7822 12.2357 13.7822 12.4091C13.7822 12.5825 13.7481 12.7541 13.6817 12.9143C13.6153 13.0745 13.518 13.22 13.3953 13.3425C13.2728 13.4652 13.1273 13.5625 12.9671 13.6289C12.8069 13.6953 12.6352 13.7295 12.4619 13.7295C12.2885 13.7295 12.1168 13.6953 11.9566 13.6289C11.7965 13.5625 11.6509 13.4652 11.5284 13.3425L11.4888 13.3029C11.3334 13.1509 11.1359 13.0488 10.9219 13.01C10.7079 12.9712 10.4872 12.9974 10.2882 13.0852C10.0931 13.1689 9.92671 13.3077 9.8095 13.4847C9.6923 13.6617 9.6294 13.8691 9.62855 14.0814V14.1935C9.62855 14.5434 9.48955 14.879 9.24212 15.1264C8.99469 15.3738 8.65911 15.5129 8.3092 15.5129C7.95929 15.5129 7.6237 15.3738 7.37628 15.1264C7.12885 14.879 6.98985 14.5434 6.98985 14.1935V14.1341C6.98474 13.9158 6.91407 13.704 6.78701 13.5264C6.65995 13.3487 6.48238 13.2134 6.2774 13.138C6.07843 13.0502 5.85772 13.024 5.64372 13.0628C5.42973 13.1016 5.23226 13.2036 5.07679 13.3557L5.03721 13.3953C4.91468 13.518 4.76917 13.6153 4.609 13.6817C4.44884 13.7481 4.27715 13.7822 4.10377 13.7822C3.93039 13.7822 3.75871 13.7481 3.59854 13.6817C3.43837 13.6153 3.29286 13.518 3.17033 13.3953C3.04766 13.2728 2.95035 13.1273 2.88395 12.9671C2.81756 12.8069 2.78338 12.6352 2.78338 12.4619C2.78338 12.2885 2.81756 12.1168 2.88395 11.9566C2.95035 11.7965 3.04766 11.6509 3.17033 11.5284L3.20991 11.4888C3.36199 11.3334 3.46401 11.1359 3.50281 10.9219C3.54161 10.7079 3.51542 10.4872 3.4276 10.2882C3.34398 10.0931 3.20513 9.92671 3.02815 9.8095C2.85116 9.6923 2.64377 9.6294 2.43149 9.62855H2.31935C1.96944 9.62855 1.63385 9.48955 1.38643 9.24212C1.139 8.99469 1 8.65911 1 8.3092C1 7.95929 1.139 7.6237 1.38643 7.37628C1.63385 7.12885 1.96944 6.98985 2.31935 6.98985H2.37872C2.59707 6.98474 2.80883 6.91407 2.98648 6.78701C3.16413 6.65995 3.29944 6.48238 3.37483 6.2774C3.46264 6.07843 3.48884 5.85772 3.45004 5.64372C3.41123 5.42973 3.30922 5.23226 3.15714 5.07679L3.11756 5.03721C2.99489 4.91468 2.89757 4.76917 2.83118 4.609C2.76478 4.44884 2.73061 4.27715 2.73061 4.10377C2.73061 3.93039 2.76478 3.75871 2.83118 3.59854C2.89757 3.43837 2.99489 3.29286 3.11756 3.17033C3.24009 3.04766 3.3856 2.95035 3.54576 2.88395C3.70593 2.81756 3.87761 2.78338 4.051 2.78338C4.22438 2.78338 4.39606 2.81756 4.55623 2.88395C4.7164 2.95035 4.86191 3.04766 4.98444 3.17033L5.02402 3.20991C5.17949 3.36199 5.37695 3.46401 5.59095 3.50281C5.80495 3.54161 6.02566 3.51542 6.22463 3.4276H6.2774C6.47251 3.34398 6.63891 3.20513 6.75612 3.02815C6.87333 2.85116 6.93623 2.64377 6.93708 2.43149V2.31935C6.93708 1.96944 7.07608 1.63385 7.3235 1.38643C7.57093 1.139 7.90651 1 8.25643 1C8.60634 1 8.94192 1.139 9.18935 1.38643C9.43677 1.63385 9.57578 1.96944 9.57578 2.31935V2.37872C9.57662 2.591 9.63952 2.79839 9.75673 2.97537C9.87394 3.15236 10.0403 3.29121 10.2355 3.37483C10.4344 3.46264 10.6551 3.48884 10.8691 3.45004C11.0831 3.41123 11.2806 3.30922 11.4361 3.15714L11.4756 3.11756C11.5982 2.99489 11.7437 2.89757 11.9038 2.83118C12.064 2.76478 12.2357 2.73061 12.4091 2.73061C12.5825 2.73061 12.7541 2.76478 12.9143 2.83118C13.0745 2.89757 13.22 2.99489 13.3425 3.11756C13.4652 3.24009 13.5625 3.3856 13.6289 3.54576C13.6953 3.70593 13.7295 3.87761 13.7295 4.051C13.7295 4.22438 13.6953 4.39606 13.6289 4.55623C13.5625 4.7164 13.4652 4.86191 13.3425 4.98444L13.3029 5.02402C13.1509 5.17949 13.0488 5.37695 13.01 5.59095C12.9712 5.80495 12.9974 6.02566 13.0852 6.22463V6.2774C13.1689 6.47251 13.3077 6.63891 13.4847 6.75612C13.6617 6.87333 13.8691 6.93623 14.0814 6.93708H14.1935C14.5434 6.93708 14.879 7.07608 15.1264 7.3235C15.3738 7.57093 15.5129 7.90651 15.5129 8.25643C15.5129 8.60634 15.3738 8.94192 15.1264 9.18935C14.879 9.43677 14.5434 9.57578 14.1935 9.57578H14.1341C13.9219 9.57662 13.7145 9.63952 13.5375 9.75673C13.3605 9.87394 13.2216 10.0403 13.138 10.2355Z" stroke="#9E9E9E" stroke-linecap="round" stroke-linejoin="round"/>
</g>
</svg>
