<svg width="20" height="22" viewBox="0 0 20 22" fill="none" xmlns="http://www.w3.org/2000/svg">
<g id="&#240;&#159;&#166;&#134; icon &#34;trash 2&#34;">
<path id="Vector" d="M1 4.92908H3H19" stroke="#F33D69" stroke-width="1.5" stroke-linecap="round" stroke-linejoin="round"/>
<path id="Vector_2" d="M17 4.9291V18.681C17 19.202 16.7893 19.7017 16.4142 20.0701C16.0391 20.4385 15.5304 20.6455 15 20.6455H5C4.46957 20.6455 3.96086 20.4385 3.58579 20.0701C3.21071 19.7017 3 19.202 3 18.681V4.9291M6 4.9291V2.96455C6 2.44352 6.21071 1.94383 6.58579 1.5754C6.96086 1.20698 7.46957 1 8 1H12C12.5304 1 13.0391 1.20698 13.4142 1.5754C13.7893 1.94383 14 2.44352 14 2.96455V4.9291" stroke="#F33D69" stroke-width="1.5" stroke-linecap="round" stroke-linejoin="round"/>
<path id="Vector_3" d="M8 9.84058V15.7342" stroke="#F33D69" stroke-width="1.5" stroke-linecap="round" stroke-linejoin="round"/>
<path id="Vector_4" d="M12 9.84058V15.7342" stroke="#F33D69" stroke-width="1.5" stroke-linecap="round" stroke-linejoin="round"/>
</g>
</svg>
