<svg width="20" height="21" viewBox="0 0 20 21" fill="none" xmlns="http://www.w3.org/2000/svg">
<path id="Union" fill-rule="evenodd" clip-rule="evenodd" d="M14.9541 7.39553C15.4288 11.0954 12.8143 14.4795 9.11441 14.9541C5.41456 15.4288 2.03046 12.8143 1.55581 9.11441C1.08115 5.41456 3.69569 2.03046 7.39553 1.55581C11.0954 1.08115 14.4795 3.69569 14.9541 7.39553ZM13.3381 14.7598C12.2079 15.6446 10.8322 16.246 9.30528 16.4419C4.78374 17.022 0.64807 13.8268 0.0680001 9.30528C-0.51207 4.78374 2.68312 0.64807 7.20466 0.0680001C11.7262 -0.51207 15.8619 2.68312 16.4419 7.20466C16.7575 9.66466 15.9556 12.0104 14.4306 13.7315L19.7714 19.6619L18.6568 20.6657L13.3381 14.7598Z" fill="#1F1F1F"/>
</svg>
