<svg width="76" height="71" viewBox="0 0 76 71" fill="none" xmlns="http://www.w3.org/2000/svg">
<g id="Group 59">
<g id="&#240;&#159;&#166;&#134; icon &#34;camera&#34;">
<path id="Vector" d="M73.3334 53.8788C73.3334 55.5987 72.6502 57.2482 71.434 58.4643C70.2179 59.6804 68.5684 60.3637 66.8485 60.3637H8.48485C6.76496 60.3637 5.11552 59.6804 3.89937 58.4643C2.68322 57.2482 2 55.5987 2 53.8788V18.2121C2 16.4922 2.68322 14.8428 3.89937 13.6266C5.11552 12.4105 6.76496 11.7273 8.48485 11.7273H21.4546L27.9394 2H47.394L53.8788 11.7273H66.8485C68.5684 11.7273 70.2179 12.4105 71.434 13.6266C72.6502 14.8428 73.3334 16.4922 73.3334 18.2121V53.8788Z" stroke="#D6D6D6" stroke-width="3.5" stroke-linecap="round" stroke-linejoin="round"/>
<path id="Vector_2" d="M37.6667 47.3939C44.8296 47.3939 50.6364 41.5872 50.6364 34.4242C50.6364 27.2613 44.8296 21.4545 37.6667 21.4545C30.5037 21.4545 24.697 27.2613 24.697 34.4242C24.697 41.5872 30.5037 47.3939 37.6667 47.3939Z" stroke="#D6D6D6" stroke-width="3.5" stroke-linecap="round" stroke-linejoin="round"/>
</g>
<g id="Group 58">
<circle id="Ellipse 22" cx="65.3334" cy="60.7273" r="10" fill="#9E9E9E"/>
<g id="Group 57">
<path id="Union" fill-rule="evenodd" clip-rule="evenodd" d="M66.3334 59.7273V55.7273H64.3334V59.7273H60.3334V61.7273H64.3334V65.7273H66.3334V61.7273H70.3334V59.7273H66.3334Z" fill="white"/>
</g>
</g>
</g>
</svg>
